<svg version="1.1" id="Layer_1" xmlns="http://www.w3.org/2000/svg" xmlns:xlink="http://www.w3.org/1999/xlink" x="0px" y="0px"
	 width="100%" viewBox="0 0 775 774" enable-background="new 0 0 775 774" xml:space="preserve">
<path fill="#010101" opacity="1.000000" stroke="none" 
	d="
M380.000000,775.000000 
	C253.333328,775.000000 127.166664,775.000000 1.000000,775.000000 
	C1.000000,517.000000 1.000000,259.000000 1.000000,1.000000 
	C259.333344,1.000000 517.666687,1.000000 776.000000,1.000000 
	C776.000000,259.000000 776.000000,517.000000 776.000000,775.000000 
	C644.166687,775.000000 512.333313,775.000000 380.000000,775.000000 
M509.171112,526.700317 
	C509.171112,526.700317 509.182434,526.333496 509.749268,525.998718 
	C510.877625,524.686646 512.005981,523.374512 513.637573,521.678528 
	C514.673523,520.428833 515.709534,519.179138 517.140808,517.710266 
	C516.729980,517.255737 516.319214,516.801208 515.176880,516.346802 
	C513.734314,517.809021 512.291809,519.271301 510.266113,520.883057 
	C509.771118,521.680969 509.276123,522.478882 508.166656,523.390686 
	C507.566315,524.134949 506.965942,524.879150 505.549530,526.034729 
	C503.659943,527.619385 502.321472,527.820801 502.156677,524.754150 
	C502.004486,521.922180 501.783112,519.093872 501.592194,516.263977 
	C500.954041,516.186523 500.315918,516.109070 499.677765,516.031616 
	C499.225586,517.466797 498.418488,518.893494 498.383545,520.338745 
	C498.243469,526.135620 498.231018,531.942322 498.437256,537.735901 
	C498.484955,539.075256 499.583038,540.377136 500.197784,541.696289 
	C500.852448,540.410339 501.550598,539.144409 502.152161,537.834045 
	C503.191742,535.569702 504.171356,533.277771 505.176086,530.997375 
	C506.830963,532.144104 508.485840,533.290771 510.215027,534.985474 
	C512.452942,537.117554 514.690857,539.249573 517.288574,541.625610 
	C517.300537,540.878174 517.312500,540.130676 517.040283,538.804260 
	C515.280212,536.654968 513.520081,534.505676 511.577332,531.726074 
	C510.664185,530.490540 509.751038,529.255066 509.024994,527.520325 
	C508.999725,527.344421 508.974457,527.168518 509.171112,526.700317 
M458.901123,534.421082 
	C459.105652,533.755371 459.310150,533.089600 459.482758,532.290466 
	C459.482758,532.290466 459.348511,532.318542 460.012756,532.114563 
	C461.297607,529.831116 462.582458,527.547729 464.635223,525.327271 
	C465.048157,525.630493 465.461090,525.933655 465.711792,527.124207 
	C465.764496,531.405701 465.817169,535.687256 465.586700,540.263367 
	C466.084381,540.629272 466.582031,540.995239 467.605042,541.493225 
	C467.759094,541.399048 467.913147,541.304810 468.798645,540.944946 
	C468.972351,534.213318 469.212708,527.482178 469.261993,520.749634 
	C469.271515,519.445435 468.534607,518.135742 468.057465,516.986755 
	C468.057465,516.986755 468.175812,516.852051 468.091064,516.366028 
	C467.301788,516.529236 466.512512,516.692444 465.282928,517.008850 
	C465.030457,517.228455 464.909149,517.505432 464.423737,518.128540 
	C464.155853,518.778381 463.887939,519.428284 463.143311,520.581543 
	C462.404388,522.005371 461.665466,523.429199 460.412231,525.099731 
	C460.118378,525.758606 459.824524,526.417419 459.103302,527.505432 
	C459.001648,527.892578 458.899994,528.279663 458.112885,529.075378 
	C456.533905,531.271729 455.309296,530.788025 454.124023,528.651855 
	C452.199341,525.182983 450.293549,521.692200 448.128174,518.374939 
	C447.432556,517.309326 445.942932,516.762024 444.816589,515.977600 
	C444.241150,517.198242 443.200531,518.407043 443.168884,519.641602 
	C443.012054,525.764160 443.006775,531.897766 443.232361,538.016968 
	C443.278198,539.260925 444.547028,540.459778 445.252045,541.679382 
	C445.797272,540.468018 446.734406,539.281311 446.812714,538.040466 
	C447.029358,534.606689 446.887726,531.150391 446.887726,527.702942 
	C447.437469,527.646851 447.987213,527.590698 448.536957,527.534546 
	C450.164856,529.715881 451.792755,531.897156 453.533325,534.589294 
	C453.767944,534.836365 454.002563,535.083374 454.368683,535.937317 
	C456.323761,538.055176 457.641602,537.625977 458.901123,534.421082 
M473.388092,536.859070 
	C473.173553,537.599976 472.959015,538.340942 472.489410,539.940125 
	C473.880585,542.705200 475.120300,541.459778 476.054199,539.679504 
	C476.868805,538.126709 477.367920,536.408447 478.916138,534.606934 
	C483.838440,534.490540 489.536530,532.503540 491.173218,540.059448 
	C491.332092,540.793030 493.181976,541.160339 494.246979,541.697632 
	C494.361359,540.568115 494.887848,539.279053 494.522400,538.335388 
	C492.369812,532.777100 489.821075,527.367493 487.791382,521.768066 
	C486.615479,518.523987 484.979584,516.857300 480.960083,517.882202 
	C479.960754,520.712646 478.866608,523.811646 477.309875,527.424438 
	C476.143799,530.477356 474.977722,533.530212 473.388092,536.859070 
M444.000641,414.698792 
	C444.671509,414.488220 445.342377,414.277618 446.786804,413.802551 
	C447.864258,413.892181 448.941711,413.981812 450.459839,414.664429 
	C454.085938,416.360687 457.829651,417.853363 461.283020,419.848633 
	C462.761810,420.703033 463.636200,422.603577 464.785217,424.028748 
	C462.980499,425.036407 461.193085,426.077179 459.361847,427.034149 
	C458.702393,427.378754 457.937592,427.521851 456.208710,428.088806 
	C459.440948,430.106598 460.659912,435.670502 464.620270,431.678009 
	C468.626190,427.639618 472.374268,426.143799 477.801727,427.620941 
	C480.289825,428.298065 483.098663,428.122406 485.715912,427.864807 
	C487.076202,427.730896 488.336090,426.577240 489.641327,425.884186 
	C488.536407,424.821442 487.614075,423.305450 486.295074,422.774231 
	C480.482819,420.433228 474.556213,418.376190 468.506226,416.155823 
	C468.570496,415.745422 468.785431,414.373413 468.964142,412.064453 
	C468.990723,395.371857 469.017303,378.679260 469.519897,361.724152 
	C469.501923,361.312561 469.483948,360.901001 469.465973,360.489410 
	C468.982971,360.638916 468.499939,360.788422 467.081818,361.034821 
	C445.403076,361.030853 423.724304,361.026855 401.424835,360.939484 
	C401.270142,361.622772 401.115479,362.306091 401.211700,363.899384 
	C401.188141,380.251007 401.164581,396.602631 400.617371,413.227356 
	C401.291107,414.236481 401.964844,415.245575 402.638580,416.254669 
	C403.097626,415.540009 403.556702,414.825378 404.920441,413.854492 
	C417.940277,413.940674 430.960083,414.026855 444.000641,414.698792 
M666.266235,445.190186 
	C652.537048,423.572815 638.809143,401.954590 625.078369,380.338257 
	C601.630432,343.424225 578.131165,306.542572 554.806030,269.551117 
	C552.406555,265.745819 549.825745,264.198456 545.213074,264.207184 
	C522.744507,264.249573 500.275543,263.789825 477.805878,263.679169 
	C453.816681,263.561005 429.826508,263.627930 405.836761,263.640930 
	C404.399170,263.641724 402.961700,263.880554 401.579651,264.003693 
	C401.579651,281.537537 401.579651,298.614899 401.579651,315.907837 
	C428.313110,315.907837 454.708313,315.907837 481.979065,315.907837 
	C481.979065,303.510468 481.979065,291.424988 481.979065,278.004608 
	C483.521088,280.134033 484.148895,280.909546 484.679443,281.746674 
	C529.902405,353.103210 575.137756,424.451935 620.264954,495.868958 
	C622.184387,498.906555 624.185181,500.148102 627.814636,500.121765 
	C650.137695,499.959625 672.462585,500.046570 694.786865,500.026123 
	C696.491455,500.024536 698.195984,499.833435 700.830383,499.674225 
	C689.056030,481.126831 677.847229,463.470245 666.266235,445.190186 
M259.500366,263.592194 
	C248.004135,263.601562 236.506882,263.697083 225.012360,263.561676 
	C222.018143,263.526398 220.217773,264.483734 218.501572,267.022400 
	C202.110229,291.268951 185.514481,315.377350 169.149704,339.641632 
	C167.671661,341.833130 166.697662,344.831329 166.675751,347.464752 
	C166.492798,369.456329 166.526184,391.450653 166.689514,413.442719 
	C166.706909,415.782867 167.482239,418.427826 168.738556,420.401337 
	C184.902481,445.793182 201.249496,471.068420 217.448517,496.438049 
	C219.169144,499.132721 221.160110,500.117035 224.336609,500.098206 
	C246.995483,499.963745 269.655365,500.009155 292.314911,499.968018 
	C293.383881,499.966095 294.452301,499.685791 296.059540,499.459229 
	C295.074249,497.693451 294.448517,496.380981 293.655609,495.178802 
	C268.210815,456.600098 242.784866,418.008789 217.228165,379.504303 
	C215.066788,376.247925 214.935074,373.986877 217.351212,370.713440 
	C239.375702,340.874054 261.217194,310.899536 283.104523,280.958893 
	C287.068726,275.536072 290.998199,270.087891 295.712341,263.592316 
	C283.059021,263.592316 271.779724,263.592316 259.500366,263.592194 
M83.353004,294.499817 
	C83.353050,361.121796 83.390953,427.743805 83.263771,494.365540 
	C83.255714,498.585480 84.067245,500.168304 88.687325,500.107941 
	C108.336784,499.851318 127.991585,500.011536 147.644409,499.988861 
	C149.060837,499.987213 150.476974,499.740540 151.703262,499.625641 
	C151.703262,420.723480 151.703262,342.374878 151.703262,263.636688 
	C129.675461,263.636688 108.056931,263.658203 86.438538,263.611084 
	C83.542915,263.604767 83.308960,265.274872 83.323425,267.517395 
	C83.379311,276.177887 83.350380,284.838928 83.353004,294.499817 
M318.025024,312.500000 
	C318.025177,372.955963 318.072784,433.412048 317.930634,493.867676 
	C317.919891,498.436096 318.741150,500.224609 323.830231,500.142456 
	C343.144379,499.830841 362.466492,500.022919 381.785645,500.006561 
	C383.236267,500.005341 384.686768,499.845886 386.331207,499.748474 
	C386.331207,420.942444 386.331207,342.465546 386.331207,263.995392 
	C385.457855,263.805176 384.986969,263.613342 384.515930,263.612915 
	C363.697784,263.594147 342.879181,263.661072 322.061951,263.521637 
	C318.536438,263.498016 317.955933,265.010834 317.977905,268.032013 
	C318.083130,282.520691 318.025085,297.010559 318.025024,312.500000 
M509.734375,439.150452 
	C497.458923,459.169189 485.183441,479.187897 472.401703,500.032288 
	C497.395721,500.032288 521.187805,500.082733 544.978210,499.900696 
	C546.333679,499.890320 548.212280,498.265442 548.939758,496.906189 
	C556.707825,482.391449 564.395020,467.830139 571.792786,453.124756 
	C572.678162,451.364685 572.519409,448.184021 571.485535,446.492584 
	C561.432800,430.045593 551.098999,413.770233 540.811523,397.467285 
	C540.079102,396.306580 539.079956,395.314240 537.774536,393.717194 
	C528.271606,409.142242 519.211731,423.848175 509.734375,439.150452 
M698.410522,264.665436 
	C697.929993,264.552979 697.449463,264.342316 696.968872,264.342133 
	C674.169617,264.333038 651.369873,264.412231 628.571533,264.267853 
	C625.430176,264.247986 624.202576,265.833313 622.962219,268.136932 
	C615.717041,281.592743 608.513245,295.072784 601.060730,308.413483 
	C599.328918,311.513641 599.702881,313.751434 601.523254,316.573761 
	C609.888550,329.543304 618.049133,342.644684 626.309937,355.681824 
	C629.018433,359.956360 631.807495,364.179810 634.848450,368.872131 
	C636.006897,367.273346 636.724548,366.400208 637.316467,365.448822 
	C653.025818,340.196289 668.761353,314.959991 684.398071,289.662537 
	C689.358765,281.636963 694.049866,273.444763 698.410522,264.665436 
M530.435669,527.178162 
	C528.553772,526.391541 525.489685,526.027588 525.027039,524.733643 
	C523.939636,521.692322 524.622681,518.869568 529.224243,519.179504 
	C532.362183,519.390808 535.551025,518.846375 538.717041,518.639893 
	C538.692383,517.713806 538.667664,516.787781 538.643005,515.861694 
	C534.030212,515.826233 529.416748,515.829407 524.804932,515.741333 
	C521.814575,515.684204 520.645325,517.080322 520.771667,520.022400 
	C520.928406,523.669861 520.814209,527.327942 520.892822,530.979858 
	C521.129700,541.988281 521.144165,542.018860 532.352783,541.961670 
	C534.562134,541.950439 536.769775,541.598877 538.978210,541.404236 
	C538.954895,540.648376 538.931580,539.892517 538.908325,539.136658 
	C534.345093,538.864868 529.781860,538.593018 525.339355,538.328430 
	C524.126709,530.530273 524.194214,530.504272 531.188293,530.426575 
	C533.089050,530.405396 534.984619,529.921936 536.882568,529.650635 
	C536.856995,529.045166 536.831360,528.439636 536.805786,527.834106 
	C534.982178,527.614563 533.158630,527.395020 530.435669,527.178162 
M349.460571,523.394348 
	C349.056274,520.110352 350.547394,518.982544 353.773376,519.076172 
	C356.965363,519.168701 360.172577,518.734802 363.373108,518.531799 
	C363.351288,517.744934 363.329437,516.958008 363.307587,516.171143 
	C358.009735,516.171143 352.706787,516.063599 347.420807,516.314026 
	C346.795227,516.343689 345.791260,518.321899 345.764465,519.416443 
	C345.609833,525.735291 345.620605,532.061890 345.771759,538.381104 
	C345.798523,539.498901 346.709412,541.529114 347.283081,541.554871 
	C352.717682,541.798889 358.167694,541.700256 363.613251,541.700256 
	C363.629669,540.899597 363.646057,540.098938 363.662476,539.298218 
	C360.740143,539.113403 357.819885,538.835754 354.894897,538.770203 
	C352.045593,538.706299 349.379333,539.296570 349.290283,534.722107 
	C349.195557,529.854370 352.047424,530.421265 355.096008,530.342957 
	C357.230133,530.288147 359.354858,529.868896 361.483795,529.612427 
	C361.420105,528.812073 361.356384,528.011719 361.292694,527.211365 
	C358.567963,527.211365 355.795074,527.511230 353.138855,527.084717 
	C351.813354,526.871826 350.701202,525.330444 349.460571,523.394348 
M190.034317,527.562744 
	C187.883957,527.448547 185.718964,527.121338 183.586517,527.267944 
	C180.005661,527.513977 178.942123,525.940125 179.143509,522.546509 
	C179.323578,519.512451 181.004211,519.160278 183.440323,519.120117 
	C186.573990,519.068665 189.703079,518.738464 192.834137,518.528381 
	C192.819946,517.699951 192.805756,516.871521 192.791550,516.043091 
	C187.617325,516.043091 182.435440,515.908264 177.277847,516.201233 
	C176.576126,516.241089 175.480133,518.405579 175.445923,519.611206 
	C175.266602,525.927368 175.293121,532.253479 175.450851,538.571045 
	C175.477768,539.649048 176.446609,541.599365 177.049454,541.626770 
	C182.370651,541.868774 187.707489,541.767212 193.039703,541.767212 
	C193.069519,540.961731 193.099319,540.156250 193.129135,539.350769 
	C189.934387,539.139221 186.725510,538.637390 183.548569,538.791931 
	C179.847549,538.971985 179.088272,537.285400 179.132263,534.020630 
	C179.184021,530.180542 181.600357,530.382751 184.201019,530.368958 
	C189.518524,530.340820 189.518341,530.306091 190.034317,527.562744 
M288.619171,542.004211 
	C292.513824,541.896667 296.408447,541.789062 300.303101,541.681458 
	C300.309967,540.847961 300.316833,540.014526 300.323700,539.181030 
	C297.689026,539.009216 295.055542,538.715210 292.419403,538.689026 
	C285.320618,538.618469 284.826050,537.984985 286.785645,530.916260 
	C290.623688,530.529053 294.461731,530.141785 298.299744,529.754517 
	C298.258362,529.003418 298.216980,528.252319 298.175598,527.501221 
	C295.503174,527.379639 292.813416,527.010376 290.162445,527.195801 
	C286.393341,527.459351 285.700256,525.651550 285.948578,522.394836 
	C286.188660,519.246704 288.176697,519.443604 290.434174,519.169678 
	C293.534424,518.793518 297.262604,520.821655 299.683594,516.441284 
	C295.185974,515.750793 290.705811,515.817078 286.228729,515.727539 
	C283.236511,515.667725 282.083313,516.994446 282.150757,519.949341 
	C282.275879,525.429382 282.464111,530.931702 282.110413,536.391357 
	C281.826569,540.773621 283.269897,542.662170 288.619171,542.004211 
M554.344727,538.538696 
	C548.514221,538.162415 546.692322,536.489807 546.331421,530.719543 
	C546.083008,526.748962 546.284973,522.747192 545.954285,518.786987 
	C545.878601,517.880859 544.439514,517.088440 543.627930,516.243713 
	C543.021362,517.113403 541.890198,517.986511 541.895813,518.852295 
	C541.925903,523.488953 541.928345,528.164978 542.533875,532.748962 
	C543.296570,538.523376 547.483765,541.912415 553.092346,541.996887 
	C559.165283,542.088379 563.246643,538.964905 564.087036,532.773254 
	C564.708130,528.197327 564.579712,523.506958 564.564270,518.868286 
	C564.561218,517.968567 563.537354,517.072327 562.984375,516.174438 
	C562.241699,517.074341 560.936218,517.927856 560.857422,518.882568 
	C560.571533,522.345520 560.834900,525.850525 560.630554,529.324402 
	C560.401733,533.215454 559.794922,537.032349 554.344727,538.538696 
M134.938126,523.383240 
	C135.579285,518.164124 139.260727,518.864197 142.782928,519.422729 
	C144.541122,519.701538 146.261276,520.220215 148.104065,520.655273 
	C148.216309,519.475037 148.402206,519.002747 148.255188,518.849182 
	C144.675690,515.109863 140.093826,514.850464 135.955826,516.812378 
	C133.732056,517.866821 131.402603,520.998413 131.147324,523.407471 
	C130.671539,527.897705 134.903900,529.062500 138.380646,530.304871 
	C138.848938,530.472229 139.341751,530.569763 139.819885,530.710815 
	C142.608170,531.533508 146.664963,531.718872 145.882675,535.757385 
	C145.056381,540.023071 140.972473,538.742249 137.963486,538.479492 
	C136.531906,538.354431 135.187561,537.428040 133.754623,537.051331 
	C132.788589,536.797302 131.736694,536.869873 130.386414,536.771912 
	C133.774231,542.938599 145.390915,543.870789 148.998291,538.792908 
	C151.117142,535.810364 150.368011,531.525208 147.104095,529.725769 
	C144.951462,528.539062 142.441360,528.020386 140.181595,527.002075 
	C138.442963,526.218689 136.845062,525.122986 134.938126,523.383240 
M385.439819,519.042053 
	C382.148560,515.691345 378.185272,515.322571 373.880005,516.417664 
	C369.060425,517.643494 365.502014,522.193359 364.948212,527.868347 
	C364.455719,532.915649 367.707001,538.722351 372.333740,541.058594 
	C376.157440,542.989380 382.281586,542.152771 385.373505,538.981567 
	C386.188538,538.145691 386.231812,536.557251 386.629486,535.314392 
	C385.490723,535.630249 384.337433,535.902100 383.216248,536.271301 
	C380.938568,537.021423 378.677307,538.469727 376.410828,538.466675 
	C372.097229,538.460815 370.050049,535.091919 369.053650,531.421875 
	C367.916565,527.233643 369.054657,523.386230 372.660553,520.777832 
	C376.032166,518.338806 379.457520,518.698608 382.778046,521.304138 
	C383.612427,521.958862 385.008301,521.898132 386.146118,522.166199 
	C386.083832,521.277588 386.021515,520.388977 385.439819,519.042053 
M203.337692,541.606934 
	C207.107483,540.865479 210.936279,540.322998 214.603485,539.235535 
	C215.466019,538.979675 215.783096,536.884460 216.351089,535.635376 
	C215.126892,535.906067 213.664719,535.839355 212.719727,536.505859 
	C208.642395,539.381592 203.954361,539.357910 201.016296,536.196899 
	C197.558472,532.476685 197.455048,525.958191 200.790405,521.961548 
	C203.549805,518.655090 207.939667,518.499268 212.372314,521.330444 
	C213.406387,521.990906 214.840286,522.025452 217.091019,522.606201 
	C213.704987,517.094666 210.693237,515.477966 206.166519,515.906433 
	C200.383240,516.453857 196.405991,519.929871 195.021439,525.646973 
	C193.467545,532.063354 196.027252,537.362732 203.337692,541.606934 
M421.949066,516.796265 
	C421.119049,516.814331 420.286224,516.885498 419.459534,516.841492 
	C415.277100,516.618896 412.432800,518.348450 411.807343,522.612793 
	C411.187469,526.839355 414.167480,528.384399 417.546448,529.446106 
	C419.445892,530.042969 421.568115,530.330017 423.158508,531.398743 
	C424.740326,532.461670 425.782013,534.328369 427.060577,535.842651 
	C425.377045,536.863831 423.740906,538.613708 421.998291,538.727112 
	C419.666382,538.878845 417.263184,537.707703 414.867737,537.215698 
	C413.815674,536.999695 412.707214,537.058350 410.856628,536.945374 
	C415.169464,542.108948 423.851471,543.422974 428.181000,540.329163 
	C431.925903,537.653137 431.627869,531.711121 427.431641,529.528809 
	C425.110901,528.321899 422.287018,528.064392 420.004700,526.807434 
	C418.121277,525.770081 416.700623,523.892578 415.074890,522.387451 
	C417.188477,521.312561 419.221497,519.986816 421.450378,519.270935 
	C422.528931,518.924561 423.965790,519.877747 425.257843,519.956299 
	C426.371643,520.024109 427.510132,519.686096 428.637695,519.527466 
	C428.652924,519.072144 428.668182,518.616882 428.683411,518.161560 
	C426.704742,517.711304 424.726074,517.261108 421.949066,516.796265 
M153.357803,535.272156 
	C153.357101,536.435730 153.112747,537.670349 153.425430,538.742554 
	C153.727615,539.778748 154.603729,540.647644 155.227737,541.590027 
	C155.833221,540.625854 156.746964,539.728638 156.974228,538.682312 
	C157.344360,536.978149 157.266006,535.176514 157.374969,533.447205 
	C160.177734,533.086853 162.470551,532.838196 164.747986,532.489319 
	C168.809937,531.866882 171.663544,529.063110 171.817200,525.469299 
	C171.925171,522.944275 169.910400,519.331604 167.736313,517.961426 
	C165.092911,516.295349 161.298645,516.396057 157.979553,515.877869 
	C154.575821,515.346497 153.123657,516.809509 153.289154,520.356018 
	C153.506058,525.004333 153.355072,529.669739 153.357803,535.272156 
M318.621796,529.268921 
	C316.236603,528.624451 313.869049,527.542847 311.461792,527.445862 
	C308.425110,527.323547 307.479492,526.249023 307.471008,523.276184 
	C307.461273,519.858704 309.030609,519.179260 312.060059,519.156128 
	C319.460449,519.099731 319.459503,518.973694 321.589142,515.932251 
	C316.099060,515.932251 311.207306,515.778687 306.341309,516.063904 
	C305.385925,516.119934 303.783386,517.846008 303.748535,518.846130 
	C303.511688,525.640320 303.548920,532.447876 303.694916,539.246887 
	C303.712585,540.068604 304.911865,540.864868 305.563477,541.672974 
	C306.210907,540.869019 307.263153,540.140686 307.430023,539.247009 
	C307.934357,536.546021 307.130127,532.740112 308.654724,531.326355 
	C310.254913,529.842529 313.960785,530.647827 316.741882,530.401550 
	C317.213196,530.359863 317.661621,530.060120 318.621796,529.268921 
M572.175537,540.960205 
	C571.399353,535.727966 572.521545,532.134583 578.948059,532.884766 
	C579.894165,532.995239 580.918823,532.631836 581.879944,532.382751 
	C587.126770,531.023315 589.377075,526.189026 587.275330,521.151062 
	C584.536804,514.586914 578.770630,516.118164 573.620056,515.824890 
	C570.715759,515.659424 569.284241,516.660278 569.339722,519.762512 
	C569.452759,526.082703 569.290405,532.409241 569.498047,538.724731 
	C569.528992,539.665894 570.951599,540.561279 572.175537,540.960205 
M328.264404,523.442627 
	C327.785706,519.715393 329.831024,519.016235 333.031189,519.094788 
	C335.940857,519.166321 338.863678,518.701782 341.780731,518.473572 
	C341.726166,517.677063 341.671600,516.880554 341.617035,516.084045 
	C336.595032,516.084045 331.567261,515.966492 326.557434,516.213013 
	C325.820679,516.249329 324.596436,517.997986 324.569977,518.980652 
	C324.386841,525.779480 324.398438,532.586670 324.541779,539.387024 
	C324.557617,540.140015 325.797913,540.867126 326.470337,541.606262 
	C327.064972,540.927551 327.747589,540.303284 328.215759,539.546265 
	C328.438171,539.186707 328.228363,538.572998 328.253906,538.076477 
	C328.619995,530.960938 328.624908,531.005798 336.137054,530.459351 
	C337.329163,530.372620 338.476807,529.674377 339.644989,529.258850 
	C339.551239,528.618225 339.457458,527.977661 339.363708,527.337036 
	C336.830231,527.337036 334.240417,527.650452 331.786163,527.209412 
	C330.491852,526.976807 329.433929,525.428406 328.264404,523.442627 
M237.864136,516.252380 
	C234.228943,523.994690 230.567978,531.725281 227.020950,539.507751 
	C226.802399,539.987244 227.294174,541.191895 227.794601,541.490295 
	C228.347580,541.819946 229.582703,541.795044 230.002533,541.388916 
	C230.795761,540.621582 231.469727,539.537048 231.750580,538.468018 
	C232.898865,534.096924 236.243286,534.527161 239.640015,534.337646 
	C242.923523,534.154541 244.381607,535.552734 245.496765,538.403870 
	C246.064575,539.855652 247.712280,540.885071 248.871826,542.105408 
	C249.486160,541.642212 250.100494,541.179016 250.714828,540.715759 
	C247.256958,532.749268 243.817932,524.774353 240.289719,516.839050 
	C240.098450,516.408875 239.160706,516.310486 237.864136,516.252380 
M396.942505,537.165344 
	C397.528168,538.664001 398.113800,540.162598 398.699493,541.661255 
	C399.405731,540.124023 400.626129,538.617859 400.721405,537.043579 
	C401.002869,532.394226 400.925751,527.715942 400.817108,523.052979 
	C400.753204,520.310425 401.767639,519.147278 404.597961,519.171570 
	C406.262421,519.185913 407.932953,518.489685 409.600769,518.113098 
	C409.500488,517.570068 409.400208,517.027100 409.299927,516.484131 
	C402.355408,516.484131 395.410919,516.484131 388.466431,516.484131 
	C388.386230,517.002502 388.306030,517.520874 388.225830,518.039246 
	C389.590698,518.432617 390.973846,519.208923 392.316925,519.144897 
	C395.835876,518.977295 397.041199,520.452148 396.874542,523.879456 
	C396.672516,528.034119 396.864838,532.207886 396.942505,537.165344 
M414.777313,459.572083 
	C418.023407,456.321198 423.346161,454.969360 424.512939,449.764343 
	C422.852356,449.873779 421.786224,450.634399 420.617493,451.171875 
	C418.647949,452.077637 416.613342,452.841797 414.606079,453.665558 
	C414.069580,451.542023 413.123505,449.427399 413.077087,447.293213 
	C412.960327,441.928131 409.032074,439.472717 405.324951,436.577026 
	C405.494476,439.595123 406.586639,442.181702 407.455902,444.841156 
	C407.977875,446.438080 408.526917,448.180389 408.389801,449.800293 
	C408.209625,451.928864 407.366089,454.001282 406.968475,455.494446 
	C405.907654,457.310944 405.072113,458.741699 404.236603,460.172455 
	C406.090393,460.477509 407.946838,461.027985 409.797150,461.008270 
	C411.220886,460.993103 412.636993,460.260712 414.777313,459.572083 
M256.937958,524.586792 
	C256.932648,522.757141 257.153748,520.886780 256.835175,519.113403 
	C256.650848,518.087341 255.597061,517.217529 254.934555,516.277405 
	C254.396255,517.176514 253.435333,518.056396 253.393463,518.978088 
	C253.219955,522.795715 253.326141,526.625977 253.326233,530.451599 
	C253.326508,541.952148 253.326172,541.990173 264.904297,541.908691 
	C267.078949,541.893372 269.250488,541.439331 271.423462,541.187744 
	C271.366943,540.481018 271.310425,539.774353 271.253906,539.067627 
	C266.620483,538.852417 261.987061,538.637146 256.938049,538.402649 
	C256.938049,533.825378 256.938049,529.693665 256.937958,524.586792 
M220.782013,521.092590 
	C220.778473,526.910767 220.661942,532.733093 220.873550,538.543457 
	C220.912552,539.614014 222.280273,540.636230 223.034683,541.680725 
	C223.602509,540.665588 224.635941,539.662170 224.661728,538.633484 
	C224.815857,532.486938 224.838440,526.331604 224.660980,520.186340 
	C224.620621,518.788391 223.617844,517.418274 223.058029,516.035339 
	C222.301865,517.441772 221.545700,518.848145 220.782013,521.092590 
M415.231812,484.438934 
	C416.718475,484.954651 418.440796,486.230347 419.651154,485.855011 
	C424.997406,484.197083 430.196350,482.064056 435.448639,480.103058 
	C433.190369,479.228699 431.007355,479.243927 428.944794,479.750092 
	C424.302643,480.889313 420.007843,483.132202 415.008759,479.816254 
	C412.600739,478.218994 408.838440,478.663391 405.689392,478.183289 
	C405.689362,478.480469 405.689331,478.777679 405.689301,479.074860 
	C408.726898,480.650543 411.764526,482.226227 415.231812,484.438934 
z"/>
<path fill="#FBFBFB" opacity="1.000000" stroke="none" 
	d="
M666.452332,445.501953 
	C677.847229,463.470245 689.056030,481.126831 700.830383,499.674225 
	C698.195984,499.833435 696.491455,500.024536 694.786865,500.026123 
	C672.462585,500.046570 650.137695,499.959625 627.814636,500.121765 
	C624.185181,500.148102 622.184387,498.906555 620.264954,495.868958 
	C575.137756,424.451935 529.902405,353.103210 484.679443,281.746674 
	C484.148895,280.909546 483.521088,280.134033 481.979065,278.004608 
	C481.979065,291.424988 481.979065,303.510468 481.979065,315.907837 
	C454.708313,315.907837 428.313110,315.907837 401.579651,315.907837 
	C401.579651,298.614899 401.579651,281.537537 401.579651,264.003693 
	C402.961700,263.880554 404.399170,263.641724 405.836761,263.640930 
	C429.826508,263.627930 453.816681,263.561005 477.805878,263.679169 
	C500.275543,263.789825 522.744507,264.249573 545.213074,264.207184 
	C549.825745,264.198456 552.406555,265.745819 554.806030,269.551117 
	C578.131165,306.542572 601.630432,343.424225 625.078369,380.338257 
	C638.809143,401.954590 652.537048,423.572815 666.452332,445.501953 
z"/>
<path fill="#FBFBFB" opacity="1.000000" stroke="none" 
	d="
M260.000366,263.592255 
	C271.779724,263.592316 283.059021,263.592316 295.712341,263.592316 
	C290.998199,270.087891 287.068726,275.536072 283.104523,280.958893 
	C261.217194,310.899536 239.375702,340.874054 217.351212,370.713440 
	C214.935074,373.986877 215.066788,376.247925 217.228165,379.504303 
	C242.784866,418.008789 268.210815,456.600098 293.655609,495.178802 
	C294.448517,496.380981 295.074249,497.693451 296.059540,499.459229 
	C294.452301,499.685791 293.383881,499.966095 292.314911,499.968018 
	C269.655365,500.009155 246.995483,499.963745 224.336609,500.098206 
	C221.160110,500.117035 219.169144,499.132721 217.448517,496.438049 
	C201.249496,471.068420 184.902481,445.793182 168.738556,420.401337 
	C167.482239,418.427826 166.706909,415.782867 166.689514,413.442719 
	C166.526184,391.450653 166.492798,369.456329 166.675751,347.464752 
	C166.697662,344.831329 167.671661,341.833130 169.149704,339.641632 
	C185.514481,315.377350 202.110229,291.268951 218.501572,267.022400 
	C220.217773,264.483734 222.018143,263.526398 225.012360,263.561676 
	C236.506882,263.697083 248.004135,263.601562 260.000366,263.592255 
z"/>
<path fill="#FCFCFC" opacity="1.000000" stroke="none" 
	d="
M83.353027,293.999817 
	C83.350380,284.838928 83.379311,276.177887 83.323425,267.517395 
	C83.308960,265.274872 83.542915,263.604767 86.438538,263.611084 
	C108.056931,263.658203 129.675461,263.636688 151.703262,263.636688 
	C151.703262,342.374878 151.703262,420.723480 151.703262,499.625641 
	C150.476974,499.740540 149.060837,499.987213 147.644409,499.988861 
	C127.991585,500.011536 108.336784,499.851318 88.687325,500.107941 
	C84.067245,500.168304 83.255714,498.585480 83.263771,494.365540 
	C83.390953,427.743805 83.353050,361.121796 83.353027,293.999817 
z"/>
<path fill="#FBFBFB" opacity="1.000000" stroke="none" 
	d="
M318.025024,312.000000 
	C318.025085,297.010559 318.083130,282.520691 317.977905,268.032013 
	C317.955933,265.010834 318.536438,263.498016 322.061951,263.521637 
	C342.879181,263.661072 363.697784,263.594147 384.515930,263.612915 
	C384.986969,263.613342 385.457855,263.805176 386.331207,263.995392 
	C386.331207,342.465546 386.331207,420.942444 386.331207,499.748474 
	C384.686768,499.845886 383.236267,500.005341 381.785645,500.006561 
	C362.466492,500.022919 343.144379,499.830841 323.830231,500.142456 
	C318.741150,500.224609 317.919891,498.436096 317.930634,493.867676 
	C318.072784,433.412048 318.025177,372.955963 318.025024,312.000000 
M370.214417,479.774841 
	C368.925903,479.299072 367.637390,478.823334 366.348907,478.347565 
	C366.217987,478.526825 366.087097,478.706116 365.956207,478.885406 
	C368.226257,480.439514 370.496277,481.993622 372.811707,483.578796 
	C372.869171,484.498383 372.951324,485.813873 373.033508,487.129364 
	C373.927704,486.437164 374.758789,485.633118 375.733368,485.083374 
	C376.771057,484.497955 377.944824,484.153992 379.058624,483.703156 
	C380.515503,483.113495 381.971741,482.522400 383.428284,481.931946 
	C383.307800,481.664856 383.187347,481.397766 383.066864,481.130676 
	C379.017395,480.702484 374.967957,480.274261 370.214417,479.774841 
z"/>
<path fill="#FAFAFA" opacity="1.000000" stroke="none" 
	d="
M509.943115,438.852295 
	C519.211731,423.848175 528.271606,409.142242 537.774536,393.717194 
	C539.079956,395.314240 540.079102,396.306580 540.811523,397.467285 
	C551.098999,413.770233 561.432800,430.045593 571.485535,446.492584 
	C572.519409,448.184021 572.678162,451.364685 571.792786,453.124756 
	C564.395020,467.830139 556.707825,482.391449 548.939758,496.906189 
	C548.212280,498.265442 546.333679,499.890320 544.978210,499.900696 
	C521.187805,500.082733 497.395721,500.032288 472.401703,500.032288 
	C485.183441,479.187897 497.458923,459.169189 509.943115,438.852295 
z"/>
<path fill="#F8F8F8" opacity="1.000000" stroke="none" 
	d="
M698.637451,264.997131 
	C694.049866,273.444763 689.358765,281.636963 684.398071,289.662537 
	C668.761353,314.959991 653.025818,340.196289 637.316467,365.448822 
	C636.724548,366.400208 636.006897,367.273346 634.848450,368.872131 
	C631.807495,364.179810 629.018433,359.956360 626.309937,355.681824 
	C618.049133,342.644684 609.888550,329.543304 601.523254,316.573761 
	C599.702881,313.751434 599.328918,311.513641 601.060730,308.413483 
	C608.513245,295.072784 615.717041,281.592743 622.962219,268.136932 
	C624.202576,265.833313 625.430176,264.247986 628.571533,264.267853 
	C651.369873,264.412231 674.169617,264.333038 696.968872,264.342133 
	C697.449463,264.342316 697.929993,264.552979 698.637451,264.997131 
z"/>
<path fill="#F7F7F6" opacity="1.000000" stroke="none" 
	d="
M469.043854,361.986664 
	C469.017303,378.679260 468.990723,395.371857 468.654602,412.565979 
	C466.508636,412.419037 464.564240,411.977417 462.854950,411.085297 
	C456.470825,407.753326 450.163757,404.273712 443.827789,400.849487 
	C443.458557,401.312378 443.089325,401.775238 442.720093,402.238129 
	C444.903839,405.233582 447.145172,408.189789 449.230804,411.252075 
	C449.751312,412.016327 449.769897,413.122467 450.019165,414.071472 
	C448.941711,413.981812 447.864258,413.892181 446.074280,413.751587 
	C444.901123,413.838074 444.440521,413.975525 443.979919,414.113037 
	C430.960083,414.026855 417.940277,413.940674 404.223938,413.781281 
	C402.731934,413.456787 401.936462,413.205536 401.140991,412.954254 
	C401.164581,396.602631 401.188141,380.251007 401.325867,363.272766 
	C401.641907,362.105072 401.843719,361.563995 402.045563,361.022888 
	C423.724304,361.026855 445.403076,361.030853 467.638275,361.232544 
	C468.477783,361.615753 468.760803,361.801208 469.043854,361.986664 
z"/>
<path fill="#272320" opacity="1.000000" stroke="none" 
	d="
M450.239502,414.367950 
	C449.769897,413.122467 449.751312,412.016327 449.230804,411.252075 
	C447.145172,408.189789 444.903839,405.233582 442.720093,402.238129 
	C443.089325,401.775238 443.458557,401.312378 443.827789,400.849487 
	C450.163757,404.273712 456.470825,407.753326 462.854950,411.085297 
	C464.564240,411.977417 466.508636,412.419037 468.672729,413.034424 
	C468.785431,414.373413 468.570496,415.745422 468.506226,416.155823 
	C474.556213,418.376190 480.482819,420.433228 486.295074,422.774231 
	C487.614075,423.305450 488.536407,424.821442 489.641327,425.884216 
	C488.336090,426.577240 487.076202,427.730896 485.715912,427.864807 
	C483.098663,428.122406 480.289825,428.298065 477.801727,427.620941 
	C472.374268,426.143799 468.626190,427.639618 464.620270,431.678009 
	C460.659912,435.670502 459.440948,430.106598 456.208710,428.088806 
	C457.937592,427.521851 458.702393,427.378754 459.361847,427.034149 
	C461.193085,426.077179 462.980499,425.036407 464.785217,424.028748 
	C463.636200,422.603577 462.761810,420.703033 461.283020,419.848633 
	C457.829651,417.853363 454.085938,416.360687 450.239502,414.367950 
z"/>
<path fill="#949494" opacity="1.000000" stroke="none" 
	d="
M530.885376,527.176880 
	C533.158630,527.395020 534.982178,527.614563 536.805786,527.834106 
	C536.831360,528.439636 536.856995,529.045166 536.882568,529.650635 
	C534.984619,529.921936 533.089050,530.405396 531.188293,530.426575 
	C524.194214,530.504272 524.126709,530.530273 525.339355,538.328430 
	C529.781860,538.593018 534.345093,538.864868 538.908325,539.136658 
	C538.931580,539.892517 538.954895,540.648376 538.978210,541.404236 
	C536.769775,541.598877 534.562134,541.950439 532.352783,541.961670 
	C521.144165,542.018860 521.129700,541.988281 520.892822,530.979858 
	C520.814209,527.327942 520.928406,523.669861 520.771667,520.022400 
	C520.645325,517.080322 521.814575,515.684204 524.804932,515.741333 
	C529.416748,515.829407 534.030212,515.826233 538.643005,515.861694 
	C538.667664,516.787781 538.692383,517.713806 538.717041,518.639893 
	C535.551025,518.846375 532.362183,519.390808 529.224243,519.179504 
	C524.622681,518.869568 523.939636,521.692322 525.027039,524.733643 
	C525.489685,526.027588 528.553772,526.391541 530.885376,527.176880 
z"/>
<path fill="#A1A1A1" opacity="1.000000" stroke="none" 
	d="
M349.476562,523.892151 
	C350.701202,525.330444 351.813354,526.871826 353.138855,527.084717 
	C355.795074,527.511230 358.567963,527.211365 361.292694,527.211365 
	C361.356384,528.011719 361.420105,528.812073 361.483795,529.612427 
	C359.354858,529.868896 357.230133,530.288147 355.096008,530.342957 
	C352.047424,530.421265 349.195557,529.854370 349.290283,534.722107 
	C349.379333,539.296570 352.045593,538.706299 354.894897,538.770203 
	C357.819885,538.835754 360.740143,539.113403 363.662476,539.298218 
	C363.646057,540.098938 363.629669,540.899597 363.613251,541.700256 
	C358.167694,541.700256 352.717682,541.798889 347.283081,541.554871 
	C346.709412,541.529114 345.798523,539.498901 345.771759,538.381104 
	C345.620605,532.061890 345.609833,525.735291 345.764465,519.416443 
	C345.791260,518.321899 346.795227,516.343689 347.420807,516.314026 
	C352.706787,516.063599 358.009735,516.171143 363.307587,516.171143 
	C363.329437,516.958008 363.351288,517.744934 363.373108,518.531799 
	C360.172577,518.734802 356.965363,519.168701 353.773376,519.076172 
	C350.547394,518.982544 349.056274,520.110352 349.476562,523.892151 
z"/>
<path fill="#A1A1A1" opacity="1.000000" stroke="none" 
	d="
M190.340195,527.737793 
	C189.518341,530.306091 189.518524,530.340820 184.201019,530.368958 
	C181.600357,530.382751 179.184021,530.180542 179.132263,534.020630 
	C179.088272,537.285400 179.847549,538.971985 183.548569,538.791931 
	C186.725510,538.637390 189.934387,539.139221 193.129135,539.350769 
	C193.099319,540.156250 193.069519,540.961731 193.039703,541.767212 
	C187.707489,541.767212 182.370651,541.868774 177.049454,541.626770 
	C176.446609,541.599365 175.477768,539.649048 175.450851,538.571045 
	C175.293121,532.253479 175.266602,525.927368 175.445923,519.611206 
	C175.480133,518.405579 176.576126,516.241089 177.277847,516.201233 
	C182.435440,515.908264 187.617325,516.043091 192.791550,516.043091 
	C192.805756,516.871521 192.819946,517.699951 192.834137,518.528381 
	C189.703079,518.738464 186.573990,519.068665 183.440323,519.120117 
	C181.004211,519.160278 179.323578,519.512451 179.143509,522.546509 
	C178.942123,525.940125 180.005661,527.513977 183.586517,527.267944 
	C185.718964,527.121338 187.883957,527.448547 190.340195,527.737793 
z"/>
<path fill="#949494" opacity="1.000000" stroke="none" 
	d="
M288.152039,541.995483 
	C283.269897,542.662170 281.826569,540.773621 282.110413,536.391357 
	C282.464111,530.931702 282.275879,525.429382 282.150757,519.949341 
	C282.083313,516.994446 283.236511,515.667725 286.228729,515.727539 
	C290.705811,515.817078 295.185974,515.750793 299.683594,516.441284 
	C297.262604,520.821655 293.534424,518.793518 290.434174,519.169678 
	C288.176697,519.443604 286.188660,519.246704 285.948578,522.394836 
	C285.700256,525.651550 286.393341,527.459351 290.162445,527.195801 
	C292.813416,527.010376 295.503174,527.379639 298.175598,527.501221 
	C298.216980,528.252319 298.258362,529.003418 298.299744,529.754517 
	C294.461731,530.141785 290.623688,530.529053 286.786316,530.921387 
	C284.826050,537.984985 285.320618,538.618469 292.419403,538.689026 
	C295.055542,538.715210 297.689026,539.009216 300.323700,539.181030 
	C300.316833,540.014526 300.309967,540.847961 300.303101,541.681458 
	C296.408447,541.789062 292.513824,541.896667 288.152039,541.995483 
z"/>
<path fill="#949494" opacity="1.000000" stroke="none" 
	d="
M554.772827,538.455811 
	C559.794922,537.032349 560.401733,533.215454 560.630554,529.324402 
	C560.834900,525.850525 560.571533,522.345520 560.857422,518.882568 
	C560.936218,517.927856 562.241699,517.074341 562.984375,516.174438 
	C563.537354,517.072327 564.561218,517.968567 564.564270,518.868286 
	C564.579712,523.506958 564.708130,528.197327 564.087036,532.773254 
	C563.246643,538.964905 559.165283,542.088379 553.092346,541.996887 
	C547.483765,541.912415 543.296570,538.523376 542.533875,532.748962 
	C541.928345,528.164978 541.925903,523.488953 541.895813,518.852295 
	C541.890198,517.986511 543.021362,517.113403 543.627930,516.243713 
	C544.439514,517.088440 545.878601,517.880859 545.954285,518.786987 
	C546.284973,522.747192 546.083008,526.748962 546.331421,530.719543 
	C546.692322,536.489807 548.514221,538.162415 554.772827,538.455811 
z"/>
<path fill="#9D9D9D" opacity="1.000000" stroke="none" 
	d="
M135.061356,523.774658 
	C136.845062,525.122986 138.442963,526.218689 140.181595,527.002075 
	C142.441360,528.020386 144.951462,528.539062 147.104095,529.725769 
	C150.368011,531.525208 151.117142,535.810364 148.998291,538.792908 
	C145.390915,543.870789 133.774231,542.938599 130.386414,536.771912 
	C131.736694,536.869873 132.788589,536.797302 133.754623,537.051331 
	C135.187561,537.428040 136.531906,538.354431 137.963486,538.479492 
	C140.972473,538.742249 145.056381,540.023071 145.882675,535.757385 
	C146.664963,531.718872 142.608170,531.533508 139.819885,530.710815 
	C139.341751,530.569763 138.848938,530.472229 138.380646,530.304871 
	C134.903900,529.062500 130.671539,527.897705 131.147324,523.407471 
	C131.402603,520.998413 133.732056,517.866821 135.955826,516.812378 
	C140.093826,514.850464 144.675690,515.109863 148.255188,518.849182 
	C148.402206,519.002747 148.216309,519.475037 148.104065,520.655273 
	C146.261276,520.220215 144.541122,519.701538 142.782928,519.422729 
	C139.260727,518.864197 135.579285,518.164124 135.061356,523.774658 
z"/>
<path fill="#9D9D9D" opacity="1.000000" stroke="none" 
	d="
M385.699524,519.271240 
	C386.021515,520.388977 386.083832,521.277588 386.146118,522.166199 
	C385.008301,521.898132 383.612427,521.958862 382.778046,521.304138 
	C379.457520,518.698608 376.032166,518.338806 372.660553,520.777832 
	C369.054657,523.386230 367.916565,527.233643 369.053650,531.421875 
	C370.050049,535.091919 372.097229,538.460815 376.410828,538.466675 
	C378.677307,538.469727 380.938568,537.021423 383.216248,536.271301 
	C384.337433,535.902100 385.490723,535.630249 386.629456,535.314392 
	C386.231812,536.557251 386.188538,538.145691 385.373505,538.981567 
	C382.281586,542.152771 376.157440,542.989380 372.333740,541.058594 
	C367.707001,538.722351 364.455719,532.915649 364.948212,527.868347 
	C365.502014,522.193359 369.060425,517.643494 373.880005,516.417664 
	C378.185272,515.322571 382.148560,515.691345 385.699524,519.271240 
z"/>
<path fill="#9D9D9D" opacity="1.000000" stroke="none" 
	d="
M202.964691,541.463196 
	C196.027252,537.362732 193.467545,532.063354 195.021439,525.646973 
	C196.405991,519.929871 200.383240,516.453857 206.166519,515.906433 
	C210.693237,515.477966 213.704987,517.094666 217.091019,522.606201 
	C214.840286,522.025452 213.406387,521.990906 212.372314,521.330444 
	C207.939667,518.499268 203.549805,518.655090 200.790405,521.961548 
	C197.455048,525.958191 197.558472,532.476685 201.016296,536.196899 
	C203.954361,539.357910 208.642395,539.381592 212.719727,536.505859 
	C213.664719,535.839355 215.126892,535.906067 216.351105,535.635376 
	C215.783096,536.884460 215.466019,538.979675 214.603485,539.235535 
	C210.936279,540.322998 207.107483,540.865479 202.964691,541.463196 
z"/>
<path fill="#ADADAD" opacity="1.000000" stroke="none" 
	d="
M422.348236,516.803589 
	C424.726074,517.261108 426.704742,517.711304 428.683411,518.161560 
	C428.668182,518.616882 428.652924,519.072144 428.637695,519.527466 
	C427.510132,519.686096 426.371643,520.024109 425.257843,519.956299 
	C423.965790,519.877747 422.528931,518.924561 421.450378,519.270935 
	C419.221497,519.986816 417.188477,521.312561 415.074890,522.387451 
	C416.700623,523.892578 418.121277,525.770081 420.004700,526.807434 
	C422.287018,528.064392 425.110901,528.321899 427.431641,529.528809 
	C431.627869,531.711121 431.925903,537.653137 428.181000,540.329163 
	C423.851471,543.422974 415.169464,542.108948 410.856628,536.945374 
	C412.707214,537.058350 413.815674,536.999695 414.867737,537.215698 
	C417.263184,537.707703 419.666382,538.878845 421.998291,538.727112 
	C423.740906,538.613708 425.377045,536.863831 427.060577,535.842651 
	C425.782013,534.328369 424.740326,532.461670 423.158508,531.398743 
	C421.568115,530.330017 419.445892,530.042969 417.546448,529.446106 
	C414.167480,528.384399 411.187469,526.839355 411.807343,522.612793 
	C412.432800,518.348450 415.277100,516.618896 419.459534,516.841492 
	C420.286224,516.885498 421.119049,516.814331 422.348236,516.803589 
z"/>
<path fill="#A5A5A5" opacity="1.000000" stroke="none" 
	d="
M153.360062,534.799988 
	C153.355072,529.669739 153.506058,525.004333 153.289154,520.356018 
	C153.123657,516.809509 154.575821,515.346497 157.979553,515.877869 
	C161.298645,516.396057 165.092911,516.295349 167.736313,517.961426 
	C169.910400,519.331604 171.925171,522.944275 171.817200,525.469299 
	C171.663544,529.063110 168.809937,531.866882 164.747986,532.489319 
	C162.470551,532.838196 160.177734,533.086853 157.374969,533.447205 
	C157.266006,535.176514 157.344360,536.978149 156.974228,538.682312 
	C156.746964,539.728638 155.833221,540.625854 155.227753,541.590027 
	C154.603729,540.647644 153.727615,539.778748 153.425430,538.742554 
	C153.112747,537.670349 153.357101,536.435730 153.360062,534.799988 
M156.197479,520.875671 
	C156.186646,522.871887 155.934280,524.908997 156.262970,526.847656 
	C156.437378,527.876343 157.697067,529.582092 158.334686,529.524353 
	C161.325638,529.253174 164.495575,528.930542 167.112274,527.636719 
	C168.050354,527.172852 168.484222,522.862488 167.631622,522.166992 
	C165.586166,520.498596 162.697342,519.718994 160.033020,519.026062 
	C158.971237,518.749939 157.603882,519.648804 156.197479,520.875671 
z"/>
<path fill="#9D9D9D" opacity="1.000000" stroke="none" 
	d="
M318.371216,529.574219 
	C317.661621,530.060120 317.213196,530.359863 316.741882,530.401550 
	C313.960785,530.647827 310.254913,529.842529 308.654724,531.326355 
	C307.130127,532.740112 307.934357,536.546021 307.430023,539.247009 
	C307.263153,540.140686 306.210907,540.869019 305.563477,541.672974 
	C304.911865,540.864868 303.712585,540.068604 303.694916,539.246887 
	C303.548920,532.447876 303.511688,525.640320 303.748535,518.846130 
	C303.783386,517.846008 305.385925,516.119934 306.341309,516.063904 
	C311.207306,515.778687 316.099060,515.932251 321.589142,515.932251 
	C319.459503,518.973694 319.460449,519.099731 312.060059,519.156128 
	C309.030609,519.179260 307.461273,519.858704 307.471008,523.276184 
	C307.479492,526.249023 308.425110,527.323547 311.461792,527.445862 
	C313.869049,527.542847 316.236603,528.624451 318.371216,529.574219 
z"/>
<path fill="#A5A5A5" opacity="1.000000" stroke="none" 
	d="
M571.952942,541.218994 
	C570.951599,540.561279 569.528992,539.665894 569.498047,538.724731 
	C569.290405,532.409241 569.452759,526.082703 569.339722,519.762512 
	C569.284241,516.660278 570.715759,515.659424 573.620056,515.824890 
	C578.770630,516.118164 584.536804,514.586914 587.275330,521.151062 
	C589.377075,526.189026 587.126770,531.023315 581.879944,532.382751 
	C580.918823,532.631836 579.894165,532.995239 578.948059,532.884766 
	C572.521545,532.134583 571.399353,535.727966 571.952942,541.218994 
M579.016479,518.904907 
	C576.779175,519.058533 574.541870,519.212158 572.392822,519.359741 
	C571.766724,528.564575 571.914307,529.544189 574.823608,529.686646 
	C578.465820,529.865051 582.773621,530.879944 584.337036,525.792297 
	C585.569946,521.780090 583.247375,520.013062 579.016479,518.904907 
z"/>
<path fill="#A1A1A1" opacity="1.000000" stroke="none" 
	d="
M328.266846,523.958374 
	C329.433929,525.428406 330.491852,526.976807 331.786163,527.209412 
	C334.240417,527.650452 336.830231,527.337036 339.363708,527.337036 
	C339.457458,527.977661 339.551239,528.618225 339.644989,529.258850 
	C338.476807,529.674377 337.329163,530.372620 336.137054,530.459351 
	C328.624908,531.005798 328.619995,530.960938 328.253906,538.076477 
	C328.228363,538.572998 328.438171,539.186707 328.215759,539.546265 
	C327.747589,540.303284 327.064972,540.927551 326.470337,541.606262 
	C325.797913,540.867126 324.557617,540.140015 324.541779,539.387024 
	C324.398438,532.586670 324.386841,525.779480 324.569977,518.980652 
	C324.596436,517.997986 325.820679,516.249329 326.557434,516.213013 
	C331.567261,515.966492 336.595032,516.084045 341.617035,516.084045 
	C341.671600,516.880554 341.726166,517.677063 341.780731,518.473572 
	C338.863678,518.701782 335.940857,519.166321 333.031189,519.094788 
	C329.831024,519.016235 327.785706,519.715393 328.266846,523.958374 
z"/>
<path fill="#8D8D8D" opacity="1.000000" stroke="none" 
	d="
M238.217285,516.155029 
	C239.160706,516.310486 240.098450,516.408875 240.289719,516.839050 
	C243.817932,524.774353 247.256958,532.749268 250.714828,540.715759 
	C250.100494,541.179016 249.486160,541.642212 248.871826,542.105408 
	C247.712280,540.885071 246.064575,539.855652 245.496765,538.403870 
	C244.381607,535.552734 242.923523,534.154541 239.640015,534.337646 
	C236.243286,534.527161 232.898865,534.096924 231.750580,538.468018 
	C231.469727,539.537048 230.795761,540.621582 230.002533,541.388916 
	C229.582703,541.795044 228.347580,541.819946 227.794601,541.490295 
	C227.294174,541.191895 226.802399,539.987244 227.020950,539.507751 
	C230.567978,531.725281 234.228943,523.994690 238.217285,516.155029 
M233.508240,530.926514 
	C232.799835,532.938049 232.815033,532.815857 234.993179,533.086975 
	C239.007980,533.586609 243.002991,534.245300 248.164978,535.009155 
	C245.825073,533.476501 243.952103,532.249756 241.960831,530.279358 
	C240.941620,527.816528 239.922409,525.353699 238.903183,522.890869 
	C238.452362,522.905884 238.001526,522.920837 237.550690,522.935791 
	C236.464111,525.557861 235.377548,528.179993 233.508240,530.926514 
z"/>
<path fill="#949494" opacity="1.000000" stroke="none" 
	d="
M396.914490,536.769409 
	C396.864838,532.207886 396.672516,528.034119 396.874542,523.879456 
	C397.041199,520.452148 395.835876,518.977295 392.316925,519.144897 
	C390.973846,519.208923 389.590698,518.432617 388.225830,518.039246 
	C388.306030,517.520874 388.386230,517.002502 388.466431,516.484131 
	C395.410919,516.484131 402.355408,516.484131 409.299927,516.484131 
	C409.400208,517.027100 409.500488,517.570068 409.600769,518.113098 
	C407.932953,518.489685 406.262421,519.185913 404.597961,519.171570 
	C401.767639,519.147278 400.753204,520.310425 400.817108,523.052979 
	C400.925751,527.715942 401.002869,532.394226 400.721405,537.043579 
	C400.626129,538.617859 399.405731,540.124023 398.699463,541.661255 
	C398.113800,540.162598 397.528168,538.664001 396.914490,536.769409 
z"/>
<path fill="#949494" opacity="1.000000" stroke="none" 
	d="
M453.420654,534.078491 
	C451.792755,531.897156 450.164856,529.715881 448.536957,527.534546 
	C447.987213,527.590698 447.437469,527.646851 446.887726,527.702942 
	C446.887726,531.150391 447.029358,534.606689 446.812714,538.040466 
	C446.734406,539.281311 445.797272,540.468018 445.252075,541.679382 
	C444.547028,540.459778 443.278198,539.260925 443.232361,538.016968 
	C443.006775,531.897766 443.012054,525.764160 443.168884,519.641602 
	C443.200531,518.407043 444.241150,517.198242 444.816589,515.977600 
	C445.942932,516.762024 447.432556,517.309326 448.128174,518.374939 
	C450.293549,521.692200 452.199341,525.182983 454.124023,528.651855 
	C455.309296,530.788025 456.533905,531.271729 458.506958,529.327881 
	C459.050201,530.493042 459.199341,531.405823 459.348511,532.318542 
	C459.348511,532.318542 459.482758,532.290466 459.084778,532.236938 
	C456.931396,532.815063 455.176025,533.446777 453.420654,534.078491 
z"/>
<path fill="#110D0B" opacity="1.000000" stroke="none" 
	d="
M414.416901,459.709656 
	C412.636993,460.260712 411.220886,460.993103 409.797150,461.008270 
	C407.946838,461.027985 406.090393,460.477509 404.236572,460.172424 
	C405.072113,458.741699 405.907654,457.310944 406.968475,455.494446 
	C407.366089,454.001282 408.209625,451.928864 408.389801,449.800293 
	C408.526917,448.180389 407.977875,446.438080 407.455902,444.841156 
	C406.586639,442.181702 405.494476,439.595123 405.324951,436.577026 
	C409.032074,439.472717 412.960327,441.928131 413.077087,447.293213 
	C413.123505,449.427399 414.069580,451.542023 414.606079,453.665527 
	C416.613342,452.841797 418.647949,452.077637 420.617493,451.171875 
	C421.786224,450.634399 422.852356,449.873779 424.512939,449.764343 
	C423.346161,454.969360 418.023407,456.321198 414.416901,459.709656 
z"/>
<path fill="#8D8D8D" opacity="1.000000" stroke="none" 
	d="
M477.772461,526.910706 
	C478.866608,523.811646 479.960754,520.712646 480.960083,517.882202 
	C484.979584,516.857300 486.615479,518.523987 487.791382,521.768066 
	C489.821075,527.367493 492.369812,532.777100 494.522400,538.335388 
	C494.887848,539.279053 494.361359,540.568115 494.246948,541.697632 
	C493.181976,541.160339 491.332092,540.793030 491.173218,540.059448 
	C489.536530,532.503540 483.838440,534.490540 478.603210,534.395020 
	C479.009583,533.424500 479.728912,532.665833 480.750000,532.047485 
	C483.161041,531.599121 485.794342,531.576172 487.222900,530.252808 
	C488.492340,529.076782 484.446991,523.538086 481.853333,523.062378 
	C481.446228,523.778259 481.367218,524.479736 481.278076,525.448730 
	C481.022400,526.177612 480.776825,526.639038 480.072144,527.060120 
	C478.999542,526.983459 478.385986,526.947083 477.772461,526.910706 
z"/>
<path fill="#9D9D9D" opacity="1.000000" stroke="none" 
	d="
M256.937988,525.074402 
	C256.938049,529.693665 256.938049,533.825378 256.938049,538.402649 
	C261.987061,538.637146 266.620483,538.852417 271.253906,539.067627 
	C271.310425,539.774353 271.366943,540.481018 271.423462,541.187744 
	C269.250488,541.439331 267.078949,541.893372 264.904297,541.908691 
	C253.326172,541.990173 253.326508,541.952148 253.326233,530.451599 
	C253.326141,526.625977 253.219955,522.795715 253.393463,518.978088 
	C253.435333,518.056396 254.396255,517.176514 254.934570,516.277405 
	C255.597061,517.217529 256.650848,518.087341 256.835175,519.113403 
	C257.153748,520.886780 256.932648,522.757141 256.937988,525.074402 
z"/>
<path fill="#9D9D9D" opacity="1.000000" stroke="none" 
	d="
M508.837860,528.019592 
	C509.751038,529.255066 510.664185,530.490540 511.221985,532.528931 
	C510.624664,533.700317 510.382690,534.068909 510.140717,534.437439 
	C508.485840,533.290771 506.830963,532.144104 505.176086,530.997375 
	C504.171356,533.277771 503.191742,535.569702 502.152161,537.834045 
	C501.550598,539.144409 500.852448,540.410339 500.197784,541.696289 
	C499.583038,540.377136 498.484955,539.075256 498.437256,537.735901 
	C498.231018,531.942322 498.243469,526.135620 498.383545,520.338745 
	C498.418488,518.893494 499.225586,517.466797 499.677765,516.031616 
	C500.315918,516.109070 500.954041,516.186523 501.592194,516.263977 
	C501.783112,519.093872 502.004486,521.922180 502.156677,524.754150 
	C502.321472,527.820801 503.659943,527.619385 506.088715,526.208008 
	C506.771423,526.601074 506.914917,526.820923 507.193024,527.276611 
	C507.831024,527.681458 508.334442,527.850525 508.837860,528.019592 
z"/>
<path fill="#949494" opacity="1.000000" stroke="none" 
	d="
M220.785767,520.673584 
	C221.545700,518.848145 222.301865,517.441772 223.058029,516.035339 
	C223.617844,517.418274 224.620621,518.788391 224.660980,520.186340 
	C224.838440,526.331604 224.815857,532.486938 224.661728,538.633484 
	C224.635941,539.662170 223.602509,540.665588 223.034698,541.680725 
	C222.280273,540.636230 220.912552,539.614014 220.873550,538.543457 
	C220.661942,532.733093 220.778473,526.910767 220.785767,520.673584 
z"/>
<path fill="#110D0B" opacity="1.000000" stroke="none" 
	d="
M415.016968,484.120422 
	C411.764526,482.226227 408.726898,480.650543 405.689301,479.074860 
	C405.689331,478.777679 405.689362,478.480469 405.689392,478.183289 
	C408.838440,478.663391 412.600739,478.218994 415.008759,479.816254 
	C420.007843,483.132202 424.302643,480.889313 428.944794,479.750092 
	C431.007355,479.243927 433.190369,479.228699 435.448639,480.103058 
	C430.196350,482.064056 424.997406,484.197083 419.651154,485.855011 
	C418.440796,486.230347 416.718475,484.954651 415.016968,484.120422 
z"/>
<path fill="#ADADAD" opacity="1.000000" stroke="none" 
	d="
M459.680603,532.216553 
	C459.199341,531.405823 459.050201,530.493042 458.849670,529.123535 
	C458.899994,528.279663 459.001648,527.892578 459.597992,527.200989 
	C460.370605,526.215332 460.648560,525.534180 460.926514,524.853027 
	C461.665466,523.429199 462.404388,522.005371 463.647797,520.223450 
	C464.407837,519.190186 464.663422,518.515015 464.919006,517.839844 
	C464.909149,517.505432 465.030457,517.228455 465.910431,516.992188 
	C467.083893,516.934387 467.629852,516.893188 468.175812,516.852051 
	C468.175812,516.852051 468.057465,516.986755 468.055298,517.388367 
	C468.057831,525.596863 468.062500,533.403748 468.067200,541.210632 
	C467.913147,541.304810 467.759094,541.399048 467.224426,541.130005 
	C466.519196,540.500793 466.194550,540.234741 465.869873,539.968750 
	C465.817169,535.687256 465.764496,531.405701 465.869720,526.338745 
	C465.659210,524.839111 465.290802,524.125061 464.922363,523.410950 
	C464.570679,524.028748 464.219025,524.646545 463.867310,525.264343 
	C462.582458,527.547729 461.297607,529.831116 459.680603,532.216553 
z"/>
<path fill="#949494" opacity="1.000000" stroke="none" 
	d="
M468.432922,541.077759 
	C468.062500,533.403748 468.057831,525.596863 468.097595,517.309326 
	C468.534607,518.135742 469.271515,519.445435 469.261993,520.749634 
	C469.212708,527.482178 468.972351,534.213318 468.432922,541.077759 
z"/>
<path fill="#9D9D9D" opacity="1.000000" stroke="none" 
	d="
M477.541168,527.167603 
	C478.385986,526.947083 478.999542,526.983459 479.973633,527.466431 
	C480.372223,529.244385 480.410248,530.575806 480.448303,531.907227 
	C479.728912,532.665833 479.009583,533.424500 478.148346,534.473145 
	C477.367920,536.408447 476.868805,538.126709 476.054199,539.679504 
	C475.120300,541.459778 473.880585,542.705200 472.924042,539.306152 
	C473.509674,537.975769 473.660645,537.279480 473.811646,536.583130 
	C474.977722,533.530212 476.143799,530.477356 477.541168,527.167603 
z"/>
<path fill="#9D9D9D" opacity="1.000000" stroke="none" 
	d="
M511.313354,532.844116 
	C513.520081,534.505676 515.280212,536.654968 517.066162,539.590515 
	C517.037659,540.711731 516.983215,541.046692 516.928711,541.381653 
	C514.690857,539.249573 512.452942,537.117554 510.177856,534.711426 
	C510.382690,534.068909 510.624664,533.700317 511.313354,532.844116 
z"/>
<path fill="#9D9D9D" opacity="1.000000" stroke="none" 
	d="
M510.849304,520.733582 
	C512.291809,519.271301 513.734314,517.809021 515.594238,516.653076 
	C516.256226,517.282654 516.500854,517.606079 516.745544,517.929443 
	C515.709534,519.179138 514.673523,520.428833 513.035278,521.827393 
	C511.905121,521.562073 511.377197,521.147827 510.849304,520.733582 
z"/>
<path fill="#8D8D8D" opacity="1.000000" stroke="none" 
	d="
M510.557709,520.808350 
	C511.377197,521.147827 511.905121,521.562073 512.783691,522.019409 
	C512.005981,523.374512 510.877625,524.686646 509.407654,525.657349 
	C508.971100,524.636292 508.876129,523.956543 508.781128,523.276794 
	C509.276123,522.478882 509.771118,521.680969 510.557709,520.808350 
z"/>
<path fill="#949494" opacity="1.000000" stroke="none" 
	d="
M458.392548,534.930664 
	C457.641602,537.625977 456.323761,538.055176 454.721283,535.564941 
	C456.180115,535.105286 457.286316,535.017944 458.392548,534.930664 
z"/>
<path fill="#272320" opacity="1.000000" stroke="none" 
	d="
M400.879181,413.090820 
	C401.936462,413.205536 402.731934,413.456787 403.771576,413.909393 
	C403.556702,414.825378 403.097626,415.540009 402.638580,416.254669 
	C401.964844,415.245575 401.291107,414.236481 400.879181,413.090820 
z"/>
<path fill="#ADADAD" opacity="1.000000" stroke="none" 
	d="
M458.646851,534.675903 
	C457.286316,535.017944 456.180115,535.105286 454.655518,535.261475 
	C454.002563,535.083374 453.767944,534.836365 453.476990,534.333862 
	C455.176025,533.446777 456.931396,532.815063 459.100708,532.303589 
	C459.310150,533.089600 459.105652,533.755371 458.646851,534.675903 
z"/>
<path fill="#949494" opacity="1.000000" stroke="none" 
	d="
M464.251282,525.295776 
	C464.219025,524.646545 464.570679,524.028748 464.922363,523.410950 
	C465.290802,524.125061 465.659210,524.839111 465.950867,525.895020 
	C465.461090,525.933655 465.048157,525.630493 464.251282,525.295776 
z"/>
<path fill="#9D9D9D" opacity="1.000000" stroke="none" 
	d="
M508.473907,523.333740 
	C508.876129,523.956543 508.971100,524.636292 509.124268,525.824768 
	C509.182434,526.333496 509.171112,526.700317 508.744446,526.843567 
	C507.897980,527.004761 507.478210,527.022766 507.058441,527.040710 
	C506.914917,526.820923 506.771423,526.601074 506.496735,526.002319 
	C506.965942,524.879150 507.566315,524.134949 508.473907,523.333740 
z"/>
<path fill="#272320" opacity="1.000000" stroke="none" 
	d="
M469.281860,361.855408 
	C468.760803,361.801208 468.477783,361.615753 468.105835,361.184082 
	C468.499939,360.788422 468.982971,360.638916 469.465973,360.489410 
	C469.483948,360.901001 469.501923,361.312561 469.281860,361.855408 
z"/>
<path fill="#949494" opacity="1.000000" stroke="none" 
	d="
M460.669373,524.976379 
	C460.648560,525.534180 460.370605,526.215332 459.811707,526.986450 
	C459.824524,526.417419 460.118378,525.758606 460.669373,524.976379 
z"/>
<path fill="#272320" opacity="1.000000" stroke="none" 
	d="
M401.735199,360.981201 
	C401.843719,361.563995 401.641907,362.105072 401.200439,362.817780 
	C401.115479,362.306091 401.270142,361.622772 401.735199,360.981201 
z"/>
<path fill="#8D8D8D" opacity="1.000000" stroke="none" 
	d="
M473.599854,536.721069 
	C473.660645,537.279480 473.509674,537.975769 473.051575,538.876953 
	C472.959015,538.340942 473.173553,537.599976 473.599854,536.721069 
z"/>
<path fill="#949494" opacity="1.000000" stroke="none" 
	d="
M465.728271,540.116089 
	C466.194550,540.234741 466.519196,540.500793 466.961792,541.063965 
	C466.582031,540.995239 466.084381,540.629272 465.728271,540.116089 
z"/>
<path fill="#8D8D8D" opacity="1.000000" stroke="none" 
	d="
M517.108643,541.503662 
	C516.983215,541.046692 517.037659,540.711731 517.208252,539.880005 
	C517.312500,540.130676 517.300537,540.878174 517.108643,541.503662 
z"/>
<path fill="#8D8D8D" opacity="1.000000" stroke="none" 
	d="
M516.943176,517.819824 
	C516.500854,517.606079 516.256226,517.282654 515.959961,516.652954 
	C516.319214,516.801208 516.729980,517.255737 516.943176,517.819824 
z"/>
<path fill="#949494" opacity="1.000000" stroke="none" 
	d="
M468.133423,516.609009 
	C467.629852,516.893188 467.083893,516.934387 466.130585,516.915649 
	C466.512512,516.692444 467.301788,516.529236 468.133423,516.609009 
z"/>
<path fill="#949494" opacity="1.000000" stroke="none" 
	d="
M464.671356,517.984192 
	C464.663422,518.515015 464.407837,519.190186 463.886169,519.971741 
	C463.887939,519.428284 464.155853,518.778381 464.671356,517.984192 
z"/>
<path fill="#272320" opacity="1.000000" stroke="none" 
	d="
M443.990295,414.405884 
	C444.440521,413.975525 444.901123,413.838074 445.687500,413.883820 
	C445.342377,414.277618 444.671509,414.488220 443.990295,414.405884 
z"/>
<path fill="#8D8D8D" opacity="1.000000" stroke="none" 
	d="
M507.193024,527.276611 
	C507.478210,527.022766 507.897980,527.004761 508.633453,526.989685 
	C508.974457,527.168518 508.999725,527.344421 508.931427,527.769958 
	C508.334442,527.850525 507.831024,527.681458 507.193024,527.276611 
z"/>
<path fill="#272320" opacity="1.000000" stroke="none" 
	d="
M370.566467,479.810425 
	C374.967957,480.274261 379.017395,480.702484 383.066864,481.130676 
	C383.187347,481.397766 383.307800,481.664856 383.428284,481.931946 
	C381.971741,482.522400 380.515503,483.113495 379.058624,483.703156 
	C377.944824,484.153992 376.771057,484.497955 375.733368,485.083374 
	C374.758789,485.633118 373.927704,486.437164 373.033508,487.129364 
	C372.951324,485.813873 372.869171,484.498383 372.811707,483.578796 
	C370.496277,481.993622 368.226257,480.439514 365.956207,478.885406 
	C366.087097,478.706116 366.217987,478.526825 366.348907,478.347565 
	C367.637390,478.823334 368.925903,479.299072 370.566467,479.810425 
z"/>
<path fill="#151515" opacity="1.000000" stroke="none" 
	d="
M156.286560,520.444214 
	C157.603882,519.648804 158.971237,518.749939 160.033020,519.026062 
	C162.697342,519.718994 165.586166,520.498596 167.631622,522.166992 
	C168.484222,522.862488 168.050354,527.172852 167.112274,527.636719 
	C164.495575,528.930542 161.325638,529.253174 158.334686,529.524353 
	C157.697067,529.582092 156.437378,527.876343 156.262970,526.847656 
	C155.934280,524.908997 156.186646,522.871887 156.286560,520.444214 
z"/>
<path fill="#151515" opacity="1.000000" stroke="none" 
	d="
M579.435913,518.952637 
	C583.247375,520.013062 585.569946,521.780090 584.337036,525.792297 
	C582.773621,530.879944 578.465820,529.865051 574.823608,529.686646 
	C571.914307,529.544189 571.766724,528.564575 572.392822,519.359741 
	C574.541870,519.212158 576.779175,519.058533 579.435913,518.952637 
z"/>
<path fill="#151515" opacity="1.000000" stroke="none" 
	d="
M234.290985,530.802063 
	C235.377548,528.179993 236.464111,525.557861 237.550690,522.935791 
	C238.001526,522.920837 238.452362,522.905884 238.903183,522.890869 
	C239.922409,525.353699 240.941620,527.816528 241.807007,530.979736 
	C239.199112,531.387451 236.745041,531.094727 234.290985,530.802063 
z"/>
<path fill="#ADADAD" opacity="1.000000" stroke="none" 
	d="
M233.899612,530.864258 
	C236.745041,531.094727 239.199112,531.387451 241.866150,531.351562 
	C243.952103,532.249756 245.825073,533.476501 248.164978,535.009155 
	C243.002991,534.245300 239.007980,533.586609 234.993179,533.086975 
	C232.815033,532.815857 232.799835,532.938049 233.899612,530.864258 
z"/>
<path fill="#272320" opacity="1.000000" stroke="none" 
	d="
M480.750031,532.047485 
	C480.410248,530.575806 480.372223,529.244385 480.432709,527.506714 
	C480.776825,526.639038 481.022400,526.177612 481.461365,525.217896 
	C481.830292,524.162292 482.005859,523.605103 482.181458,523.047974 
	C484.446991,523.538086 488.492340,529.076782 487.222900,530.252808 
	C485.794342,531.576172 483.161041,531.599121 480.750031,532.047485 
z"/>
<path fill="#9D9D9D" opacity="1.000000" stroke="none" 
	d="
M481.853333,523.062378 
	C482.005859,523.605103 481.830292,524.162292 481.471466,524.950317 
	C481.367218,524.479736 481.446228,523.778259 481.853333,523.062378 
z"/>
</svg>